<svg xmlns="http://www.w3.org/2000/svg" viewBox="0 0 24 24" role="img" aria-label="WhatsApp">
  <path fill="#25D366" d="M20.52 3.48A11.84 11.84 0 0 0 12.08 0C5.54 0 .24 5.3.24 11.84c0 2.08.54 4.11 1.56 5.9L0 24l6.43-1.69a11.8 11.8 0 0 0 5.65 1.44h.01c6.54 0 11.84-5.3 11.84-11.84 0-3.16-1.23-6.13-3.41-8.43zM12.09 21.7h-.01a9.8 9.8 0 0 1-4.99-1.36l-.36-.21-3.81 1 1.02-3.71-.23-.38a9.8 9.8 0 0 1-1.5-5.2c0-5.43 4.42-9.85 9.86-9.85 2.63 0 5.1 1.02 6.96 2.89a9.78 9.78 0 0 1 2.88 6.96c0 5.43-4.43 9.86-9.82 9.86zm5.4-7.37c-.29-.15-1.72-.85-1.99-.94-.26-.1-.45-.15-.64.15-.19.29-.74.94-.91 1.13-.17.19-.33.22-.62.08-.29-.14-1.21-.44-2.31-1.4-.85-.75-1.43-1.67-1.6-1.96-.17-.29-.02-.44.13-.58.13-.13.29-.33.43-.49.15-.17.19-.29.29-.49.1-.19.05-.36-.02-.51-.08-.14-.64-1.55-.88-2.13-.23-.55-.47-.47-.64-.48l-.55-.01c-.19 0-.49.07-.75.36s-.98.95-.98 2.33.99 2.71 1.12 2.9c.14.19 1.94 2.96 4.7 4.15.66.28 1.17.45 1.57.58.66.21 1.25.18 1.72.11.53-.08 1.72-.7 1.96-1.38.24-.68.24-1.26.17-1.38-.06-.13-.25-.2-.54-.35z"/>
</svg>
